<svg id="Camada_1" data-name="Camada 1" xmlns="http://www.w3.org/2000/svg" viewBox="0 0 255 276"><defs><style>.cls-1{fill:#f6f6f6;}.cls-2{fill:#1383ad;}.cls-3{fill:#71b3d1;}.cls-4{fill:#13627f;}.cls-5{fill:#136280;}.cls-6{fill:#00aeef;}.cls-7{fill:#4cbff0;}</style></defs><rect class="cls-1" x="41" y="66" width="154" height="148"/><path class="cls-2" d="M118.51,262.92c-6.87-3.77-13.77-7.49-20.6-11.34-10.79-6.08-21.54-12.25-32.29-18.42-.38-.21-.56-.78-.84-1.18,21.55-8.8,43.78-14.24,67.24-13.52a145.23,145.23,0,0,1,52.24,11.2c2,.82,4.21,1,6,2.33-9.22,6.46-19.38,11.34-29,17.19-5.52,3.37-11.19,6.49-16.8,9.72-3.53,1.69-7.42,2.39-11,4Z"/><path class="cls-3" d="M133.5,262.92c3-3,7.2-3,11-4-1.62,2.55-5.22,1.68-7,4Z"/><path class="cls-4" d="M190.22,232c-4.63,2.45-7.7-1.75-11.26-3-19.33-6.92-39.21-10.2-59.6-8.83-17,1.15-33.84,4.36-49.38,12-2.08,1-3.48-.08-5.2-.17a319.93,319.93,0,0,1-31.31-18c-1.13-2.32.89-2.87,2.18-3.7a131.16,131.16,0,0,0,28.8-24.36c2.18-2.52,4.18-5.81,8.32-5.68,2.39.6,3.86,2.48,5.52,4,9.32,8.81,20.8,13.13,33,16,8.65.76,17.29.24,25.92.32,12.81.1,25.61,0,38.41.07,2.18,0,4.81-.7,6.08,2.14-1.7,2-4,1.2-6.08,1.21-19.79.06-39.57,0-59.36,0q29.8,0,59.62,0c1.8,0,3.66.34,5.39-.49,1.25-4.68.68-9.47.81-14.22,0-1.66,0-3.32.07-5s.26-3.49,2.07-4.19c2-.78,3,.9,4,2.18,4.57,6.18,10.19,11.28,16,16.22A170.68,170.68,0,0,0,219,209.42c1.59,1.07,3.71,1.92,2.47,4.55A356.36,356.36,0,0,1,190.22,232Z"/><path class="cls-2" d="M221.47,214c0-3.28-3.17-3-4.88-4.28-11.1-8.19-22.3-16.23-30.23-27.86-.45-.67-1-1.65-1.87-1a3,3,0,0,0-.93,2.14c-.1,4.16-.15,8.33-.05,12.49a19.2,19.2,0,0,1-1.11,7.33c-.26.44-.54.47-.85,0-1.77-1.4-3.85-.81-5.79-.81-20.14-.06-40.28,0-60.42-.1-1.9,0-4,.69-5.69-1,2.32-2.26,5.28-1.68,8-1.69,18.43-.07,36.87,0,55.3-.05,7.57,0,7.75-.24,7.77-7.88,0-9.31,0-18.61,0-27.91,0-2.32-.13-4.66.74-6.89,1.78-3.3,4.63-2.62,7.42-1.89A226.73,226.73,0,0,1,228.2,169c3,1.41,6,2.61,9.14,3.74.9-1.81.49-3.49.49-5.12,0-23.44,0-46.88.07-70.31,0-2.52-.8-5.42,2-7.22.11,6.64.3,13.28.32,19.92q.11,39.41.14,78.8c-3.15,7.57-6,15.31-12.47,20.91C226,211.44,224.13,213.36,221.47,214Z"/><path class="cls-2" d="M72.59,180.81c-2,.14-3.17,1.69-4.36,3-10,11.28-21,21.34-34.23,28.75-.32.19-.36.89-.53,1.35-7.56-3.25-11.84-9.54-15.29-16.57-1.23-2.49-2.29-5.07-3.43-7.61L14.93,175c14.12-6.48,28.07-13.38,43.18-17.43a3.64,3.64,0,0,1,2,.93c4.22,6.4,6.91,13.74,12.11,19.55A2.62,2.62,0,0,1,72.59,180.81Z"/><path class="cls-5" d="M107.57,19.11c6.53-2.1,12.62-5.3,19.91-5.22s13.37,3.2,19.93,5.21l4,2.06c5.59,2.88,10.75,6.53,16.36,9.4a3.62,3.62,0,0,1,2.16,3.08,132.14,132.14,0,0,0-10.67,29.15,40.54,40.54,0,0,0-1.34,8.27c-.08,2-.83,3.37-3.05,1.57-13.37-.31-26.74.11-34.69-.08h30.51c1.63,0,3.32-.52,4.82.59-.81,3-3.34,2.25-5.3,2.28q-13.41.19-26.84,0a71.36,71.36,0,0,0-16.76,1.43c-6.4.7-7,.11-8.35-6-2.54-12-5.11-24-11.53-34.66-1.14-1.91-1.53-3.7.74-5.11Z"/><path class="cls-2" d="M87.45,31.11c-2.38,4,1.85,6,3,8.67a132.42,132.42,0,0,1,9.22,31.85c.66,4,2.27,4.94,5.73,4.31.08.24.16.47.23.7A2.17,2.17,0,0,1,104.3,78c-10,2.43-18.42,8-26.5,14.1a10.53,10.53,0,0,1-4.53.92C57,88.73,40.93,83.94,25.8,76.44c-1.43-.71-3.16-1.25-3.48-3.23,1.81-5.16,6.79-7.39,10.22-11Q59.09,46.95,85.63,31.74A10,10,0,0,1,87.45,31.11Z"/><path class="cls-2" d="M105.45,75.94A36.13,36.13,0,0,1,117,74c11.09,0,22.18,0,33.27,0,1.74,0,3.68.63,5.16-1h0c3.06-1.09.54-3.34,1-5,2.75-10.85,5.62-21.65,10.6-31.74a18.2,18.2,0,0,1,2.46-3.07c2.64-1.41,3.77,1.8,5.9,1.92l33.06,19c3.68,3.32,8.3,5.14,12.46,7.7,4.77,2.93,9.31,6.06,11.79,11.36-.8,2.78-3.3,3.54-5.53,4.54a246.32,246.32,0,0,1-56.72,17.76c-2.37.43-4.9,1.53-6.81-1.11-1.44-4-.78-8.24-.79-12.36,0-3.84-1.67-5.39-5.41-5.32-15.27.29-30.56-.72-45.82.61-2.13.18-4.34.54-6.08-1.25Z"/><path class="cls-6" d="M165,95.06c23.58-4.17,46.4-10.71,67.73-21.85,4,5,5.87,10.81,7.21,16.9-.15,1.8-.44,3.6-.44,5.41q0,37.11,0,74.22c0,1.76.44,3.6-.56,5.58-14.49-6.48-28.93-13-44.13-17.48-3.73-1.1-7.52-3.5-11.79-1.94-2.57-1.42-2.06-4-2.12-6.2-.17-5.82-.19-11.65,0-17.47.11-4.06-1.47-5.61-5.55-5.57-12.64.12-25.28.07-37.93,0-2.47,0-5,.25-7.31-1-.92-3.6,2.08-2.92,3.71-3,5.44-.4,10.9-.11,16.35-.17,4.91-.06,5-.18,4.35-5.15-.43-3.42-1.13-6.85-.21-10.31,6.13-.92,9.84-4,9.41-10.7C163.59,95.64,164.26,95.18,165,95.06Z"/><path class="cls-6" d="M22.32,73.21c15.59,8.1,32.23,13.29,49.09,17.93a12.64,12.64,0,0,1,2.19,1.13c1.15,2.17-.5,3.4-1.66,4.73a61.09,61.09,0,0,0-15.23,36c-.64,7.44.68,14.47,1.73,21.63.16,1.14.7,2.25-.16,3.32-2.41,2.59-5.93,2.9-9,3.86-10.71,3.4-20.71,8.37-30.77,13.22-1.29.62-2.41,1.07-3.62,0-.06-28.07-.39-56.14,0-84.2C15.07,84.48,17.94,78.26,22.32,73.21Z"/><path class="cls-7" d="M77.37,91.08c-5.52,6.53-11.2,12.86-14.87,20.8-6,12.84-6.15,26.14-4.21,39.74.35,2.44,1.59,4.72,1.3,7.28l-1.31-1c-5.58-17.6-3.94-34.47,4.68-50.83,2.9-5.49,7.54-9.57,10.64-14.81Z"/><path class="cls-4" d="M130.15,124.41c-1.71,1.07-1.55,2.8-1.56,4.46,0,6.15.14,12.31-.07,18.45-.13,3.56,1.23,4.75,4.67,4.48,3.14-.25,6.32,0,9.47-.12s4.17,1.15,4,4.15a97.51,97.51,0,0,0,0,10c.16,3.09-1.19,4.09-4.13,4-8-.12-16,.14-23.94-.12C106.16,169.31,95.69,159,93,145c-3-16.05,4.8-31.87,18.39-37a12.24,12.24,0,0,1,3.82-1c13.12-.43,26.23-.69,39.35.09.65,4.58,1.16,9.19,2,13.74.5,2.72-.36,3.48-3,3.46C145.76,124.19,138,124.34,130.15,124.41Z"/></svg>