<svg id="Camada_1" data-name="Camada 1" xmlns="http://www.w3.org/2000/svg" viewBox="0 0 590 240"><defs><style>.cls-1{fill:#406192;}.cls-2{fill:#3f6294;}.cls-3{fill:#4b6b9a;}.cls-4{fill:#436392;}.cls-5{fill:#436496;}.cls-6{fill:#4f709f;}.cls-7{fill:#416293;}.cls-8{fill:#436493;}.cls-9{fill:#9cad58;}.cls-10{fill:#627896;}.cls-11{fill:#c4cdd8;}.cls-12{fill:#607393;}.cls-13{fill:#85919f;}.cls-14{fill:#416395;}.cls-15{fill:#416393;}.cls-16{fill:#406396;}.cls-17{fill:#416296;}.cls-18{fill:#e7f652;}.cls-19{fill:#8aa728;}.cls-20{fill:#87a420;}</style></defs><path class="cls-1" d="M567.92,116.35c-.81-15-9.24-22.07-23-22.07-38.36,0-72-15.47-105.16-33.06-6.53-3.47-6.5-3.53-16.59-4.18,14.24,23.9,13.4,30.32-4.3,33.11-8.93.07-18.52,5.85-26.39-3.25,8.86-2.66,21.9,4.6,26.27-7,3.78-10.06-6.52-17.9-11.87-25.9-11.12-16.62-28.48-21.42-46.43-23.36-39.93-4.31-79.7-4-119,6.21-28.16,7.34-51.43,22.86-71,44.3-5.46,6-10.49,7.83-18,7.91-27.52.29-55.07-.26-82.52,2.92-20.27,2.34-35.75,11.51-44.73,31-3.11.67-4.68-.22-3.64-3.79,7.33-25.58,27.89-32.45,49.75-36a204.77,204.77,0,0,1,42-2.3C140,82,162.88,73.53,183.93,56.93,246.77,7.37,317.17,8.43,389.3,26.51c22.09,5.53,41.07,19.6,60.79,31.07,32.15,18.71,66.06,30.6,103.35,28.66,14.45-.75,20,4.84,17.76,19.32C571.36,109.56,575.51,114.86,567.92,116.35Z"/><path class="cls-2" d="M378.2,153.76c0-10.44-.09-20.88.07-31.32,0-2.69.48-5.72,4.22-5.74s4.29,3,4.31,5.69c.08,17.23,0,34.47-.07,51.71,0,2.86-.73,6.27-3.93,6-2.2-.16-4.83-2.37-6.23-4.42-7.72-11.27-15.12-22.78-26-33.77,0,10.65,0,21.29,0,31.94,0,3.49-.55,6.94-5.18,6.4-3.25-.38-4.32-2.92-4.32-5.91,0-16.68-.1-33.37,0-50,0-3.31.78-6.91,4.83-7.46,3.79-.5,5.6,2.57,7.42,5.36q10.74,16.49,21.52,33Z"/><path class="cls-3" d="M292.33,178.63c10.36-18.74,20.64-37.53,31.15-56.18,1.8-3.2,3.83-7.51,8.57-5.82,3.68,1.3,3.46,5.43,3.5,8.59.25,16.18.26,32.36.26,48.53,0,3.56-.95,6.78-5.27,6.76s-5.23-3.23-5.26-6.78c-.09-9.15,0-18.3,0-29C311.09,155.24,312.86,177.41,292.33,178.63Z"/><path class="cls-4" d="M405.2,180.7c-3.54-1.09-11.59,3.31-11.54-5.53,0-8.62,7.91-5.12,12.68-5.65,6.28-.7,14.49,1.14,15.49-8,1-9.31-6.9-10.1-13.38-10.4-9.12-.42-13.94-5.71-15.64-14.06-1.58-7.74,1-14.7,7.94-18.49,7.95-4.37,16.69-3.52,25.13-1.33,1,.27,1.66,3.7,1.73,5.69.09,2.66-2.08,3.66-4.31,3.83-3.23.26-6.47.3-9.71.32-4.49,0-9.34.4-10.06,5.94-.8,6,3.81,6.92,8.49,7.3,13.85,1.15,20.78,9.11,19.17,23.29C429.48,178.79,418.76,181.58,405.2,180.7Z"/><path class="cls-5" d="M508.5,180.35c1.79-4.57,3.15-9.39,5.46-13.67,7.15-13.22,10.7-26,1-40-5.57-8.06-3.36-12.46,6.87-9.78,1.39,4.65,2.23,9.62,6.87,12.61,4.24-1.57,4.48-5.89,5.91-9.15,2-4.65,5.83-5.48,9.24-3.66,4,2.14,1.3,6.24-.31,8.4-14,18.85-4.45,35,5,51.29,1.1,1.52.8,2.74-.73,3.71-14.78,2.65-11.1-13.56-18.62-19C520.25,164.71,524.62,184.7,508.5,180.35Z"/><path class="cls-6" d="M228.14,116.08c4.31,0,8.63-.19,12.92.07,3.05.18,4.86,2.08,4.74,5.46-.08,2.38-1,4.89-3.34,4.9-13,.07-10.26,9.84-10.39,17.73-.14,8.35.21,16.72-.12,25.07-.18,4.48,2,11.44-5.81,11.08-6.28-.29-4.73-6.28-4.86-10.43-.21-6.68.61-13.47-.25-20-1.18-8.94,6.27-22.09-11.08-24.17-3.6-.44-4-8.11,2.07-9.4,5.17-1.09,10.73-.23,16.12-.23Z"/><path class="cls-7" d="M479.65,180.25c-.11-17.71-.35-35.43-.23-53.14,0-3.94-1.93-9.91,4.46-10.58,6.79-.71,15.08-3.43,20.11,1.62,4.76,4.79.67,8.79-5.62,8.82-5.24,0-9.6.69-9.41,7.92.15,5.7,2.75,7.86,8,7.8,3.65,0,6.18,1.42,6,5.8-.22,4.59-3.38,5.08-6.72,5-5.76-.19-7.08,3.11-7.21,8.34-.17,7.11,3.82,8.3,9.28,7.86,7.95-.63,8.54,4.58,8.09,10.68Z"/><path class="cls-8" d="M48.23,148C48.07,129.7,58.74,116.47,74.06,116c4.2-.12,9.21-1.13,9.64,5.47.38,5.68-3.94,5.45-7.7,5.86-12.37,1.35-17.86,9.21-17.84,21.34,0,12.32,5.83,19.84,18.29,20.64,4.15.27,7.6,1.14,7.21,6.49-.42,5.76-4.75,4.85-8.39,4.94C60.2,181.15,48.41,166.83,48.23,148Z"/><path class="cls-9" d="M521.71,45.36c.18-16.45,12.14-30.22,26.12-30.09C561,15.4,574,30.79,574,46.08c-.08,16.45-13.59,31.66-27.54,31C532.93,76.49,521.53,61.84,521.71,45.36Z"/><path class="cls-10" d="M392.46,86.9c8.23,6,17.76.74,26.39,3.24-23.36,6.19-47.15,1.91-70.72,3a211.79,211.79,0,0,1-37.27-1.56C337.75,84.57,365.14,86.38,392.46,86.9Z"/><path class="cls-11" d="M547.89,180.11c.24-1.24.48-2.47.73-3.71a54.07,54.07,0,0,0,2.59-5.84c1.51-4.85,4.37-7.73,9.46-6.52,4,1,6.78,4,6.1,8.39-.79,5.2-3.28,9.43-9.39,9C554.21,181.2,551.05,180.56,547.89,180.11Z"/><path class="cls-12" d="M567.92,116.35c3.5-2.82,2.22-7.18,3.28-10.79,4.2,14,4.26,27.83-3.28,41.71Z"/><path class="cls-13" d="M21.55,119.13q1.83,1.89,3.64,3.79c-1.91,6-2.45,12.54-8.85,19.25A31,31,0,0,1,21.55,119.13Z"/><path class="cls-14" d="M186.69,117.22c-15.43-5.47-27.79.89-37.75,19.43a19.14,19.14,0,0,0-3.41,6.15,26.31,26.31,0,0,1-.07,8,19.55,19.55,0,0,0,3.15,6.1c5.64,15.48,14.67,26.3,32.47,23.51,14.21-2.22,21.31-12,23.25-26.05C206.84,136.21,199.9,121.9,186.69,117.22Zm-9.57,52.09c-12.12.07-18.58-7.31-18.82-20.05s7.75-22.75,18.81-22c12.51.78,17.46,9.25,18.26,21.43C194.71,160.51,189.66,169.24,177.12,169.31Z"/><path class="cls-15" d="M145.53,142.8a25.67,25.67,0,0,0-3.34-9.35c-7.67-14.68-19.58-20.67-35.1-16.39-13,3.61-18.87,14-19.76,27.47-1.1,16.87,6.69,30.91,19.21,35,15.54,5.06,25.82-.44,36.18-19.39a39.78,39.78,0,0,0,2.74-9.32A13.62,13.62,0,0,1,145.53,142.8Zm-29.6,26.52c-12.39,0-18.48-7.77-19.05-20.09-.58-12.55,8.06-22.53,19.13-21.95,12.77.68,17.25,9.49,18.24,20.73C133.46,160.44,128.75,169.29,115.93,169.32Z"/><path class="cls-15" d="M145.53,142.8a13.62,13.62,0,0,0-.07,8A26.31,26.31,0,0,0,145.53,142.8Z"/><path class="cls-16" d="M285,123.34c-8.61-10.31-21-9.34-31.6-6.53-8.61,2.27-3.68,12.39-4.07,18.9-.73,12.19-.26,24.46-.17,36.69,0,3.76-.61,8.34,5.32,7.88,4.59-.35,4.23-4.1,4.43-7.36s.34-6.34.53-9.89c10.63,3.76,11.85,22.5,27.24,16.47-8.22-14.59-7.82-14.37.1-29.58C291.33,141.15,291.68,131.37,285,123.34ZM263.92,151c-11.29,1-.21-9.28-5.17-10.49.3-7.07-1.61-14.16,8.06-13.55,7.26.46,12.55,3,12.6,11.46C279.46,149.21,271.31,150.3,263.92,151Z"/><path class="cls-17" d="M463.36,116.66l-19.24-.83c-4.54-.2-7,1.74-7,6.71.07,17.14,0,34.28.09,51.42,0,3.53.67,6.74,5.19,6.33,3.29-.31,4.77-2.78,4.34-5.7-1.41-9.78,3.76-12,11.82-12.7,4-.37,7.79-3.33,11.67-5.12C478.18,141.53,477.3,127.9,463.36,116.66Zm-9.5,34.07c-8.75.34-6.77-6.26-7.2-11.45.57-5.45-2-13.1,7.91-12.16,6.82.64,11.1,4.71,11.34,11.51C466.19,146.51,461.55,150.44,453.86,150.73Z"/><path class="cls-18" d="M567.68,45.59c.12,13.66-8.87,25.66-19.58,26.11-11,.46-21.82-12.41-22.07-26.32-.21-11.86,11.13-25.27,21.43-25.35S567.56,32.15,567.68,45.59Z"/><path class="cls-19" d="M544.94,45.85c8.54,0,5.09-10.19,10.9-13.16,3.56.89,2.26,5.11,3.75,7.56,3.31,5.44,1.8,11.19-1.94,15.36-4.23,4.71-5.23-5.33-9.78-3.27-1.84.84-4.23.38-6.38.5C540.1,49.18,541.9,47.19,544.94,45.85Z"/><path class="cls-20" d="M544.94,45.85l-3.45,7c-1.1,1.22.94,7.3-3.17,3.42-7.77-7.32-4.51-15.6.95-24.32A26.53,26.53,0,0,1,544.94,45.85Z"/><path class="cls-3" d="M118.72,217.45V201.18c0-4.67,2.42-7.44,7-7.44s7,2.77,7,7.44v3.2h-4.5v-3.5c0-2-.95-2.81-2.37-2.81s-2.38.82-2.38,2.81v16.91c0,2,1,2.77,2.38,2.77s2.37-.78,2.37-2.77v-4.63h4.5v4.29c0,4.67-2.42,7.44-7,7.44S118.72,222.12,118.72,217.45Z"/><path class="cls-3" d="M138.35,217.27V201.35c0-4.84,2.56-7.61,7.23-7.61s7.22,2.77,7.22,7.61v15.92c0,4.85-2.55,7.62-7.22,7.62S138.35,222.12,138.35,217.27Zm9.69.31V201.05c0-2.16-.95-3-2.46-3s-2.47.82-2.47,3v16.53c0,2.16.95,3,2.47,3S148,219.74,148,217.58Z"/><path class="cls-3" d="M158.68,217.27V201.35c0-4.84,2.56-7.61,7.23-7.61s7.22,2.77,7.22,7.61v15.92c0,4.85-2.55,7.62-7.22,7.62S158.68,222.12,158.68,217.27Zm9.69.31V201.05c0-2.16-1-3-2.46-3s-2.47.82-2.47,3v16.53c0,2.16.95,3,2.47,3S168.37,219.74,168.37,217.58Z"/><path class="cls-3" d="M179.36,194.17h7c4.76,0,7.09,2.64,7.09,7.49v3c0,4.85-2.33,7.48-7.09,7.48h-2.25v12.33h-4.76Zm7,13.63c1.51,0,2.33-.69,2.33-2.86v-3.59c0-2.16-.82-2.85-2.33-2.85h-2.25v9.3Z"/><path class="cls-3" d="M199.08,194.17h13v4.33h-8.22v8h6.53v4.33h-6.53v9.3h8.22v4.32h-13Z"/><path class="cls-3" d="M217.81,194.17h7.05c4.93,0,7,2.3,7,7V203c0,3.11-1,5.1-3.11,6v.08c2.38.74,3.16,3,3.16,6.41v5.32a8.81,8.81,0,0,0,.52,3.67h-4.85a9.28,9.28,0,0,1-.43-3.72V215.2c0-2.82-.82-3.72-3-3.72h-1.64v13h-4.76Zm6.49,13c1.77,0,2.86-.78,2.86-3.2v-2.34c0-2.16-.74-3.11-2.43-3.11h-2.16v8.65Z"/><path class="cls-3" d="M242,194.17h6.44l4.93,30.28h-4.75l-.87-6v.09h-5.41l-.86,5.92H237Zm5.19,20.25-2.12-15h-.09l-2.07,15Z"/><path class="cls-3" d="M258.64,194.17h6l4.63,18.13h.09V194.17h4.24v30.28h-4.89L263,202.35h-.09v22.1h-4.24Z"/><path class="cls-3" d="M280.14,194.17h7.27c4.76,0,7.09,2.64,7.09,7.49V217c0,4.84-2.33,7.48-7.09,7.48h-7.27Zm7.18,26c1.51,0,2.42-.78,2.42-2.94V201.44c0-2.16-.91-2.94-2.42-2.94H284.9v21.63Z"/><path class="cls-3" d="M300.38,217.27V201.35c0-4.84,2.55-7.61,7.23-7.61s7.22,2.77,7.22,7.61v15.92c0,4.85-2.55,7.62-7.22,7.62S300.38,222.12,300.38,217.27Zm9.69.31V201.05c0-2.16-.95-3-2.46-3s-2.47.82-2.47,3v16.53c0,2.16.95,3,2.47,3S310.07,219.74,310.07,217.58Z"/><path class="cls-3" d="M330.7,217.45V201.18c0-4.67,2.43-7.44,7-7.44s7,2.77,7,7.44v3.2h-4.5v-3.5c0-2-1-2.81-2.38-2.81s-2.38.82-2.38,2.81v16.91c0,2,1,2.77,2.38,2.77s2.38-.78,2.38-2.77v-4.63h4.5v4.29c0,4.67-2.42,7.44-7,7.44S330.7,222.12,330.7,217.45Z"/><path class="cls-3" d="M350.34,217.27V201.35c0-4.84,2.55-7.61,7.22-7.61s7.23,2.77,7.23,7.61v15.92c0,4.85-2.55,7.62-7.23,7.62S350.34,222.12,350.34,217.27Zm9.69.31V201.05c0-2.16-.95-3-2.47-3s-2.46.82-2.46,3v16.53c0,2.16.95,3,2.46,3S360,219.74,360,217.58Z"/><path class="cls-3" d="M371,194.17h6.8l3,21.68h.09l3-21.68h6.79v30.28h-4.5V201.53h-.08l-3.47,22.92h-4l-3.46-22.92h-.08v22.92H371Z"/><path class="cls-3" d="M406,194.17h4.8l3.11,23.49H414l3.11-23.49h4.37l-4.58,30.28h-6.32Z"/><path class="cls-3" d="M426.38,217.27V201.35c0-4.84,2.55-7.61,7.22-7.61s7.23,2.77,7.23,7.61v15.92c0,4.85-2.56,7.62-7.23,7.62S426.38,222.12,426.38,217.27Zm9.69.31V201.05c0-2.16-.95-3-2.47-3s-2.46.82-2.46,3v16.53c0,2.16.95,3,2.46,3S436.07,219.74,436.07,217.58Z"/><path class="cls-3" d="M446.75,217.45V201.18c0-4.67,2.42-7.44,7-7.44s7,2.77,7,7.44v3.2h-4.5v-3.5c0-2-.95-2.81-2.38-2.81s-2.38.82-2.38,2.81v16.91c0,2,.95,2.77,2.38,2.77s2.38-.78,2.38-2.77v-4.63h4.5v4.29c0,4.67-2.43,7.44-7,7.44S446.75,222.12,446.75,217.45Z"/><path class="cls-3" d="M466.65,194.17h13v4.33h-8.22v8h6.53v4.33h-6.53v9.3h8.22v4.32h-13Zm4.24-7h4.5l3.54,5h-3.59l-2.2-2.38-2.21,2.38h-3.59Z"/></svg>